<mxfile host="www.draw.io" modified="2020-05-05T07:54:54.784Z" agent="5.0 (Macintosh; Intel Mac OS X 10_13_1) AppleWebKit/537.36 (KHTML, like Gecko) Chrome/81.0.4044.129 Safari/537.36" etag="J1UMTEpcd-xAqmKGMIV8" version="13.0.4" type="github">
  <diagram id="Br4-yaTpMEP03GiFX9K0" name="第 1 页">
    <mxGraphModel dx="946" dy="648" grid="1" gridSize="10" guides="1" tooltips="1" connect="1" arrows="1" fold="1" page="1" pageScale="1" pageWidth="3300" pageHeight="4681" math="0" shadow="0">
      <root>
        <mxCell id="0" />
        <mxCell id="1" parent="0" />
        <mxCell id="CRXRsRnbAZDx109cpIuT-6" value="" style="triangle;whiteSpace=wrap;html=1;direction=north;" vertex="1" parent="1">
          <mxGeometry x="490" y="440" width="80" height="60" as="geometry" />
        </mxCell>
        <mxCell id="CRXRsRnbAZDx109cpIuT-9" value="" style="rounded=0;whiteSpace=wrap;html=1;direction=south;" vertex="1" parent="1">
          <mxGeometry x="495" y="500" width="70" height="130" as="geometry" />
        </mxCell>
        <mxCell id="CRXRsRnbAZDx109cpIuT-10" value="" style="whiteSpace=wrap;html=1;aspect=fixed;" vertex="1" parent="1">
          <mxGeometry x="495" y="630" width="70" height="70" as="geometry" />
        </mxCell>
        <mxCell id="CRXRsRnbAZDx109cpIuT-11" value="" style="rounded=0;whiteSpace=wrap;html=1;direction=south;" vertex="1" parent="1">
          <mxGeometry x="550" y="650" width="30" height="80" as="geometry" />
        </mxCell>
      </root>
    </mxGraphModel>
  </diagram>
</mxfile>
